<?xml version="1.0" encoding="UTF-8"?><svg id="Layer_2" xmlns="http://www.w3.org/2000/svg" viewBox="0 0 707.49 707.49"><defs><style>.cls-1{fill:#fe3d03;}.cls-2{fill:#28170f;}</style></defs><g id="TEXT"><rect class="cls-1" width="707.49" height="707.49"/><path class="cls-2" d="M271.9,459.21c0,5.79-4.7,10.49-10.49,10.49h-33.59c-5.79,0-10.49-4.7-10.49-10.49v-33.59c0-5.79,4.7-10.49,10.49-10.49h33.6c5.78,0,10.47-4.68,10.48-10.46,0,0,0-.02,0-.03v-19.95c0-5.79,4.7-10.49,10.49-10.49h19.95c5.79,0,10.49-4.7,10.49-10.49v-19.95c0-5.79,4.7-10.49,10.49-10.49h60.87c5.79,0,10.49-4.7,10.49-10.49v-19.95c0-5.79-4.7-10.49-10.49-10.49h-142.72c-5.79,0-10.49-4.7-10.49-10.49v-33.59c0-5.79,4.7-10.49,10.49-10.49h142.72c5.79,0,10.49,4.7,10.49,10.49v33.59c0,5.79,4.7,10.49,10.49,10.49h19.95c5.79,0,10.49,4.7,10.49,10.49v19.95c0,5.79-4.7,10.49-10.49,10.49h-19.95c-5.79,0-10.48,4.69-10.48,10.48v19.95c0,5.79-4.7,10.49-10.49,10.49h-60.87c-5.79,0-10.49,4.7-10.49,10.49v19.95c0,5.79,4.7,10.49,10.49,10.49h142.72c5.79,0,10.49,4.7,10.49,10.49v33.59c0,5.79-4.7,10.49-10.49,10.49h-142.72c-5.79,0-10.49-4.7-10.49-10.49v-33.59c0-5.79-4.7-10.49-10.49-10.49h-19.94c-4.34,0-8.07,2.64-9.66,6.41-.02.04-.02.09-.04.13-.5,1.22-.78,2.55-.78,3.95v33.59Z"/><path class="cls-2" d="M462.88,237.79h0c-15.07,0-27.28,12.22-27.28,27.28s12.22,27.28,27.28,27.28h0c15.07,0,27.28-12.22,27.28-27.28s-12.22-27.28-27.28-27.28Z"/></g></svg>